<svg version="1.0" xmlns="http://www.w3.org/2000/svg"
 width="378.000000pt" height="310.000000pt" viewBox="0 0 378.000000 310.000000"
 preserveAspectRatio="xMidYMid meet">
<g transform="translate(0.000000,310.000000) scale(0.100000,-0.100000)"
fill="#3CB54A" stroke="none">
<path d="M2845 3080 c-238 -20 -430 -81 -526 -167 -63 -57 -79 -99 -86 -217
-8 -139 2 -205 37 -258 24 -36 27 -45 16 -58 -44 -49 -50 -81 -51 -235 0 -146
1 -151 27 -197 16 -25 40 -56 55 -68 l26 -21 -35 -37 c-60 -62 -70 -92 -75
-226 -7 -150 8 -214 63 -270 l36 -38 -30 -31 c-60 -64 -66 -87 -67 -252 0
-145 1 -151 27 -196 15 -25 34 -51 42 -58 13 -11 10 -18 -20 -57 -46 -61 -49
-77 -49 -239 0 -125 2 -144 22 -181 91 -170 480 -282 881 -253 275 19 472 86
566 190 55 61 66 105 66 256 0 128 -11 168 -63 229 l-27 31 21 19 c49 44 63
91 67 229 5 155 -4 197 -58 257 l-39 45 20 19 c12 11 33 39 47 64 24 41 27 56
30 175 5 159 -4 198 -63 263 l-44 49 30 29 c60 57 72 96 77 240 5 143 -3 186
-45 241 -15 20 -20 34 -13 38 5 3 20 25 32 48 18 35 23 63 26 172 5 168 -4
202 -72 270 -140 141 -502 223 -851 195z m424 -194 c160 -33 284 -87 315 -138
24 -40 -98 -108 -254 -143 -100 -22 -397 -31 -512 -16 -173 23 -323 74 -380
128 -34 32 -34 36 -5 64 49 47 204 100 352 119 98 12 395 4 484 -14z m-634
-645 c148 -35 256 -44 443 -38 181 6 294 24 414 66 l56 19 22 -23 c27 -29 22
-45 -22 -78 -204 -152 -848 -146 -1090 11 -47 31 -54 49 -27 78 l22 23 51 -20
c28 -11 87 -28 131 -38z m-45 -491 c115 -35 255 -51 432 -51 160 0 237 8 366
38 68 15 74 15 111 -1 44 -20 91 -61 91 -80 0 -35 -101 -90 -222 -120 -115
-29 -236 -39 -408 -33 -180 6 -299 27 -411 72 -63 25 -139 77 -139 95 0 23 96
89 130 90 8 0 31 -5 50 -10z m30 -584 c247 -62 552 -61 818 5 51 12 53 12 94
-17 22 -16 46 -37 52 -46 24 -38 -70 -95 -223 -135 -80 -21 -127 -26 -279 -30
-204 -6 -316 5 -450 43 -99 29 -168 62 -201 98 -24 26 -24 26 -5 47 21 25 74
59 89 59 6 0 53 -11 105 -24z m-25 -557 c117 -32 262 -49 415 -49 169 0 273
11 402 44 99 25 111 24 156 -17 12 -11 22 -26 22 -33 0 -38 -103 -93 -233
-124 -265 -63 -629 -40 -839 53 -57 25 -108 66 -108 86 0 18 83 72 99 66 9 -4
48 -15 86 -26z"/>
<path d="M548 2849 c-174 -20 -365 -88 -451 -159 -68 -57 -81 -96 -85 -253 -3
-112 -1 -147 12 -182 37 -95 189 -192 372 -236 49 -12 95 -23 102 -25 8 -2 12
-28 12 -84 0 -68 -3 -82 -17 -87 -151 -52 -249 -121 -284 -198 -24 -53 -27
-306 -5 -360 34 -82 171 -172 321 -213 l70 -19 3 -102 c2 -68 -1 -101 -8 -101
-6 0 -45 -16 -85 -36 -87 -42 -158 -112 -174 -170 -6 -22 -11 -97 -11 -169 0
-149 11 -185 76 -247 191 -186 783 -253 1159 -131 73 23 179 78 219 113 62 55
76 99 76 241 l0 124 78 37 c42 20 96 53 120 73 68 59 79 90 87 250 7 131 6
143 -14 186 -46 97 -174 184 -334 226 l-68 18 3 88 3 88 81 32 c104 42 171 91
209 152 29 46 30 53 33 189 4 129 2 146 -18 188 -30 65 -97 123 -193 168 -74
35 -200 73 -267 82 -25 3 -25 3 -22 94 5 122 -9 166 -75 232 -61 62 -177 121
-298 152 -176 45 -432 61 -627 39z m457 -184 c145 -24 243 -56 317 -103 68
-44 59 -76 -35 -121 -228 -112 -669 -121 -944 -20 -64 24 -131 65 -147 91 -30
49 140 128 341 157 99 14 370 12 468 -4z m575 -514 c164 -37 294 -101 288
-143 -6 -45 -124 -101 -278 -133 -221 -46 -668 -6 -815 73 -30 16 -29 17 88
24 153 9 251 24 357 55 95 27 206 82 241 119 12 13 25 24 28 24 3 0 44 -9 91
-19z m-970 -506 c22 -27 114 -73 205 -104 153 -51 257 -65 479 -66 l198 0 -50
-23 c-141 -64 -374 -93 -595 -74 -155 14 -224 28 -333 67 -77 28 -144 76 -144
104 0 24 48 57 123 86 73 28 100 30 117 10z m1178 -505 c83 -28 160 -72 169
-98 15 -36 -90 -96 -227 -131 -140 -34 -297 -44 -418 -26 -56 8 -132 15 -169
15 -44 0 -97 9 -152 26 -80 24 -161 59 -161 69 0 2 37 1 83 -2 93 -6 298 11
402 34 109 24 225 70 285 112 62 44 60 44 188 1z m-1058 -494 c156 -107 485
-170 773 -147 72 6 132 9 134 7 7 -7 -119 -57 -190 -75 -41 -11 -129 -25 -196
-32 -273 -27 -623 37 -728 134 -29 26 -29 42 2 70 19 16 120 67 153 76 1 1 25
-14 52 -33z"/>
</g>
</svg>
