<svg version="1.0" xmlns="http://www.w3.org/2000/svg"
 width="512.000000pt" height="288.000000pt" viewBox="0 0 512.000000 288.000000"
 preserveAspectRatio="xMidYMid meet">
<g transform="translate(0.000000,288.000000) scale(0.100000,-0.100000)"
fill="#3CB54A" stroke="none">
<path d="M1011 2869 c-86 -17 -152 -90 -159 -176 -4 -44 -8 -54 -26 -58 -11
-2 -191 -23 -399 -47 -207 -23 -377 -45 -377 -48 0 -3 309 -45 688 -93 378
-49 695 -92 705 -95 10 -4 -296 -38 -680 -76 -384 -37 -708 -71 -721 -75 -13
-3 272 -48 670 -104 381 -55 707 -102 723 -107 28 -8 28 -8 5 -9 -43 -2 -1414
-121 -1425 -125 -5 -1 67 -17 160 -35 94 -17 283 -53 420 -79 l250 -47 3 -203
2 -202 2131 0 2131 0 -4 113 c-3 101 -6 117 -33 165 -42 77 -874 894 -942 925
-44 20 -67 22 -279 25 l-231 4 -5 102 c-4 83 -9 110 -28 144 -28 51 -79 87
-140 101 -56 13 -2374 13 -2439 0z m3113 -657 c39 -38 184 -176 321 -307 138
-131 254 -244 258 -252 5 -8 4 -20 -4 -29 -10 -12 -72 -14 -423 -12 l-411 3
-3 319 c-2 227 1 323 9 332 8 10 37 14 96 14 l85 0 72 -68z"/>
<path d="M850 924 c0 -287 2 -296 70 -358 49 -44 106 -56 274 -56 l134 0 12
52 c19 78 51 145 103 214 108 142 258 216 442 216 153 0 268 -44 381 -145 89
-80 129 -152 180 -325 3 -10 120 -12 561 -10 l557 3 12 50 c66 255 283 426
544 427 139 1 235 -31 347 -114 94 -69 158 -165 198 -293 l22 -70 134 0 c124
0 137 2 179 25 24 14 58 45 75 68 l30 44 3 264 3 264 -2130 0 -2131 0 0 -256z"/>
<path d="M1800 849 c-119 -23 -245 -123 -296 -234 -131 -286 68 -605 378 -606
191 0 351 114 411 295 21 63 22 181 1 252 -60 206 -277 335 -494 293z m196
-234 c123 -80 138 -248 31 -342 -137 -120 -350 -22 -350 161 0 103 71 188 173
206 43 7 116 -5 146 -25z"/>
<path d="M4042 849 c-58 -11 -145 -52 -188 -87 -146 -121 -196 -335 -117 -503
74 -159 217 -250 391 -250 264 1 463 243 412 503 -45 231 -269 382 -498 337z
m185 -232 c71 -37 124 -144 108 -219 -20 -96 -95 -165 -189 -175 -130 -13
-237 85 -236 218 1 80 85 182 159 195 20 3 40 7 46 8 18 5 80 -10 112 -27z"/>
</g>
</svg>
