<?xml version="1.0" encoding="UTF-8" standalone="no"?>
<!-- Generator: Adobe Illustrator 17.1.0, SVG Export Plug-In . SVG Version: 6.00 Build 0)  -->

<svg
   xmlns:dc="http://purl.org/dc/elements/1.1/"
   xmlns:cc="http://creativecommons.org/ns#"
   xmlns:rdf="http://www.w3.org/1999/02/22-rdf-syntax-ns#"
   xmlns:svg="http://www.w3.org/2000/svg"
   xmlns="http://www.w3.org/2000/svg"
   xmlns:sodipodi="http://sodipodi.sourceforge.net/DTD/sodipodi-0.dtd"
   xmlns:inkscape="http://www.inkscape.org/namespaces/inkscape"
   version="1.1"
   id="Capa_1"
   x="0px"
   y="0px"
   viewBox="0 0 511.99999 511.99999"
   xml:space="preserve"
   inkscape:version="0.91 r13725"
   sodipodi:docname="payment.svg"
   width="512"
   height="512"><metadata
     id="metadata39"><rdf:RDF><cc:Work
         rdf:about=""><dc:format>image/svg+xml</dc:format><dc:type
           rdf:resource="http://purl.org/dc/dcmitype/StillImage" /><dc:title></dc:title></cc:Work></rdf:RDF></metadata><defs
     id="defs37" /><sodipodi:namedview
     pagecolor="#ffffff"
     bordercolor="#666666"
     borderopacity="1"
     objecttolerance="1"
     gridtolerance="1"
     guidetolerance="1"
     inkscape:pageopacity="0"
     inkscape:pageshadow="2"
     inkscape:window-width="1600"
     inkscape:window-height="838"
     id="namedview35"
     showgrid="true"
     inkscape:zoom="0.70710678"
     inkscape:cx="3.3880114"
     inkscape:cy="417.28955"
     inkscape:window-x="-8"
     inkscape:window-y="-8"
     inkscape:window-maximized="1"
     inkscape:current-layer="Capa_1"
     showguides="true"
     inkscape:guide-bbox="true"
     inkscape:snap-path-mask="false"><inkscape:grid
       type="xygrid"
       id="grid3369" /><sodipodi:guide
       position="-344.99999,389.99999"
       orientation="0,1"
       id="guide3399" /></sodipodi:namedview><path
     d="m 424.92845,479.83399 -363.376385,1e-5 C 27.61245,479.834 0,452.22154 0,418.28192 L 0,165.449 c 0,-33.93961 27.61245,-61.55172 61.552065,-61.55172 l 89.647655,0 186.74101,-71.632336 c 1.94056,-0.713743 4.08179,-0.609602 5.94108,0.284481 1.85929,0.896624 3.27661,2.50953 3.92686,4.470418 l 9.35079,26.202228 47.31632,-18.371377 c 1.9939,-0.629922 4.16053,-0.416562 5.98934,0.594363 1.83135,1.010924 3.16485,2.73051 3.69063,4.754898 l 7.85423,53.694785 2.91847,2.6e-4 c 33.93962,0.003 61.55286,27.61219 61.55255,61.5518 l -4.8e-4,53.2642 C 504.56116,221 512,230.364 512,248.39896 l 0,82.9384 c 0,18.91634 -7.5,26.99221 -25.51948,27.63989 l 4.8e-4,59.30721 c 2.7e-4,33.93708 -27.61293,61.54953 -61.55255,61.54953 z M 61.552065,123.895 C 36.014803,123.895 20,139.91462 20,165.45188 l 0,252.83258 c 0,23.41595 17.249817,41.54954 41.552065,41.54954 l 363.376385,0 c 22.35528,0 39.59861,-16.08713 41.55255,-41.54954 l 0,-58.02246 -139.24792,5e-4 c -25.77284,9e-5 -33.13896,-9.11668 -33.13908,-31.13951 l -4.4e-4,-78.50711 c -1.3e-4,-22.52282 10.37668,-31.90488 33.13952,-31.90488 l 139.24792,0 0,-53.25912 c 0,-25.53726 -16.01541,-41.55688 -41.55267,-41.55688 l -8.65127,0 c -0.11176,0.003 -0.22352,0.003 -0.33528,0 l -53.96506,0 c -0.11684,0.003 -0.23368,0.003 -0.35306,0 l -194.8847,0 c -0.11938,0.003 -0.23876,0.003 -0.3556,0 z M 314.094,327.33482 c 0,10.85346 4.07154,12.92718 14.925,12.92718 l 143.298,0 c 10.85346,0 19.683,-4.07372 19.683,-14.92718 l 0,-71.69882 c 0,-10.85343 -8.82954,-14.9246 -19.683,-14.92463 L 329.0187,238.711 c -10.85346,-3e-5 -14.9247,2.83199 -14.9247,13.68542 z m 55.20924,-223.435 32.96122,0 -4.60168,-35.978565 -35.71287,13.771254 z m -160.01403,0 137.96117,0 -8.15597,-24.635561 c -0.0229,-0.06604 -0.0457,-0.13208 -0.066,-0.19812 0,-0.0025 -0.003,-0.0076 -0.003,-0.0127 L 331.81982,57.290632 Z M 361.79904,325.47 c -19.78016,0.39077 -34.05499,-14.95262 -33.60404,-33.60184 0.46316,-19.15411 15.07648,-33.25231 33.60404,-33.60716 18.65518,-0.35729 33.97896,15.20162 33.60396,33.60716 0.097,21.31353 -15.40612,33.24233 -33.60396,33.60184 z m -4e-5,-47.209 c -7.50319,0 -13.604,6.10366 -13.604,13.60431 0,7.50065 6.10339,13.60469 13.60404,13.60469 7.50065,0 13.60396,-6.10373 13.60396,-13.60438 0,-7.50065 -6.10081,-13.60462 -13.604,-13.60462 z"
     id="path3"
     inkscape:connector-curvature="0"
     sodipodi:nodetypes="ssssscccccccccsscsscsssssssscsssscssccccccssssssssssccccccccccccssscssssss" /><g
     id="g5"
     transform="matrix(2.5400101,0,0,2.5400101,0,3.815799)" /><g
     id="g7"
     transform="matrix(2.5400101,0,0,2.5400101,0,3.815799)" /><g
     id="g9"
     transform="matrix(2.5400101,0,0,2.5400101,0,3.815799)" /><g
     id="g11"
     transform="matrix(2.5400101,0,0,2.5400101,0,3.815799)" /><g
     id="g13"
     transform="matrix(2.5400101,0,0,2.5400101,0,3.815799)" /><g
     id="g15"
     transform="matrix(2.5400101,0,0,2.5400101,0,3.815799)" /><g
     id="g17"
     transform="matrix(2.5400101,0,0,2.5400101,0,3.815799)" /><g
     id="g19"
     transform="matrix(2.5400101,0,0,2.5400101,0,3.815799)" /><g
     id="g21"
     transform="matrix(2.5400101,0,0,2.5400101,0,3.815799)" /><g
     id="g23"
     transform="matrix(2.5400101,0,0,2.5400101,0,3.815799)" /><g
     id="g25"
     transform="matrix(2.5400101,0,0,2.5400101,0,3.815799)" /><g
     id="g27"
     transform="matrix(2.5400101,0,0,2.5400101,0,3.815799)" /><g
     id="g29"
     transform="matrix(2.5400101,0,0,2.5400101,0,3.815799)" /><g
     id="g31"
     transform="matrix(2.5400101,0,0,2.5400101,0,3.815799)" /><g
     id="g33"
     transform="matrix(2.5400101,0,0,2.5400101,0,3.815799)" /></svg>