<?xml version="1.0" encoding="UTF-8" standalone="no"?>
<!-- Generator: Adobe Illustrator 18.0.0, SVG Export Plug-In . SVG Version: 6.00 Build 0)  -->

<svg
   xmlns:dc="http://purl.org/dc/elements/1.1/"
   xmlns:cc="http://creativecommons.org/ns#"
   xmlns:rdf="http://www.w3.org/1999/02/22-rdf-syntax-ns#"
   xmlns:svg="http://www.w3.org/2000/svg"
   xmlns="http://www.w3.org/2000/svg"
   xmlns:sodipodi="http://sodipodi.sourceforge.net/DTD/sodipodi-0.dtd"
   xmlns:inkscape="http://www.inkscape.org/namespaces/inkscape"
   version="1.1"
   id="Capa_1"
   x="0px"
   y="0px"
   viewBox="0 0 511.99999 511.99999"
   xml:space="preserve"
   inkscape:version="0.91 r13725"
   sodipodi:docname="returned-customer.svg"
   width="512"
   height="512"><metadata
     id="metadata47"><rdf:RDF><cc:Work
         rdf:about=""><dc:format>image/svg+xml</dc:format><dc:type
           rdf:resource="http://purl.org/dc/dcmitype/StillImage" /><dc:title></dc:title></cc:Work></rdf:RDF></metadata><defs
     id="defs45" /><sodipodi:namedview
     pagecolor="#ffffff"
     bordercolor="#666666"
     borderopacity="1"
     objecttolerance="1"
     gridtolerance="1"
     guidetolerance="1"
     inkscape:pageopacity="0"
     inkscape:pageshadow="2"
     inkscape:window-width="1600"
     inkscape:window-height="838"
     id="namedview43"
     showgrid="true"
     inkscape:zoom="1"
     inkscape:cx="345.44547"
     inkscape:cy="299.44922"
     inkscape:window-x="-8"
     inkscape:window-y="-8"
     inkscape:window-maximized="1"
     inkscape:current-layer="Capa_1"><inkscape:grid
       type="xygrid"
       id="grid3379" /></sodipodi:namedview><g
     id="g3419"
     transform="translate(-3,2.3774976)"><g
       transform="translate(0,123.077)"
       id="g3"><g
         transform="matrix(1.3164542,0,0,1.3164534,8.5287705e-4,-123.07651)"
         id="g3375"><path
           sodipodi:nodetypes="ccccsccccccccsccccsccccscccc"
           d="m 351.53707,240.35577 -3.25017,-0.97806 c -2.629,-0.851 -5.446,0.596 -6.293,3.225 -12.176,37.778 -38.5239,67.98329 -73.8449,86.08729 -21.276,10.904 -44.023,16.43312 -67.61,16.43312 -15.449,0 -30.841,-2.43612 -45.749,-7.24012 C 102.113,320.907 63.776,276.539 54.115,222.812 l 38.338,19.402 c 2.465,1.247 5.473,0.26 6.719,-2.204 l 1.85734,-2.46626 c 0.599,-1.183 0.703,-2.556 0.289,-3.816 -0.413,-1.26 -1.31,-2.304 -2.492997,-2.903 l -56.011152,-30.7322 c -3.807824,-1.91841 -5.655395,-1.67753 -7.524695,2.204 L 6.9947381,261.0496 c -0.599,1.183 -0.703,2.556 -0.289,3.816 0.413,1.26 1.31,2.304 2.493,2.903 L 11.665,268.709 c 0.707,0.357 1.481,0.539 2.258,0.539 0.524,0 1.05,-0.082 1.558,-0.249 1.26,-0.413 2.304,-1.31 2.903,-2.493 l 20.464369,-39.18641 c 12.869904,61.81818 52.990151,105.47619 110.756151,124.09119 16.903,5.448 33.41348,8.90468 50.94548,8.90468 26.398,0 52.86284,-7.297 76.65484,-19.492 44.37304,-26.98556 64.50185,-51.5026 78.31585,-94.3656 0.407,-1.262 0.296,-2.634 -0.309,-3.814 -0.604,-1.18 -2.41262,-1.88109 -3.67462,-2.28809 z"
           id="path11"
           inkscape:connector-curvature="0" /></g></g><g
       transform="translate(0,123.077)"
       id="g13" /><g
       transform="translate(0,123.077)"
       id="g15" /><g
       transform="translate(0,123.077)"
       id="g17" /><g
       transform="translate(0,123.077)"
       id="g19" /><g
       transform="translate(0,123.077)"
       id="g21" /><g
       transform="translate(0,123.077)"
       id="g23" /><g
       transform="translate(0,123.077)"
       id="g25" /><g
       transform="translate(0,123.077)"
       id="g27" /><g
       transform="translate(0,123.077)"
       id="g29" /><g
       transform="translate(0,123.077)"
       id="g31" /><g
       transform="translate(0,123.077)"
       id="g33" /><g
       transform="translate(0,123.077)"
       id="g35" /><g
       transform="translate(0,123.077)"
       id="g37" /><g
       transform="translate(0,123.077)"
       id="g39" /><g
       transform="translate(0,123.077)"
       id="g41" /><path
       sodipodi:nodetypes="ccccsccccccccsccccsccccscccc"
       d="m 55.172389,192.82728 4.27871,1.28757 c 3.46097,1.12031 7.16939,-0.7846 8.28443,-4.24556 16.02918,-49.73294 50.714941,-89.49678 97.213381,-113.329842 28.00885,-14.354605 57.95423,-21.633409 89.0054,-21.633409 20.33792,0 40.60073,3.207054 60.22645,9.531275 69.34679,22.348101 119.81566,80.756466 132.53392,151.485516 l -50.47015,-25.54182 c -3.24506,-1.64162 -7.20499,-0.34228 -8.84529,2.90146 l -2.44511,3.24672 c -0.78856,1.55737 -0.92543,3.36486 -0.38046,5.02358 0.54368,1.65873 1.72454,3.03311 3.2819,3.82166 l 73.73608,40.45748 c 5.01281,2.5255 7.44505,2.20839 9.90591,-2.90146 l 37.24871,-77.34561 c 0.78855,-1.55736 0.92548,-3.36485 0.38046,-5.02358 -0.54369,-1.65874 -1.72454,-3.03311 -3.2819,-3.82167 l -3.24675,-1.23798 c -0.93073,-0.46998 -1.94966,-0.70958 -2.97255,-0.70958 -0.68981,0 -1.38226,0.10796 -2.05102,0.32782 -1.65873,0.5437 -3.03311,1.72455 -3.82167,3.28192 l -26.9404,51.58705 C 449.86985,128.60812 397.05338,71.134411 321.00715,46.628664 c -22.25203,-7.17205 -43.98729,-11.7226 -67.06735,-11.7226 -34.75171,0 -69.59144,9.60616 -100.91254,25.6603 C 94.612249,96.09155 68.113589,128.36709 49.928109,184.7942 c -0.53581,1.66136 -0.38981,3.46753 0.40671,5.02094 0.7951,1.55342 3.17609,2.47637 4.83744,3.01216 z"
       id="path11-2"
       inkscape:connector-curvature="0" /></g></svg>