<?xml version="1.0" encoding="UTF-8" standalone="no"?>
<!-- Generator: Adobe Illustrator 16.0.0, SVG Export Plug-In . SVG Version: 6.00 Build 0)  -->

<svg
   xmlns:dc="http://purl.org/dc/elements/1.1/"
   xmlns:cc="http://creativecommons.org/ns#"
   xmlns:rdf="http://www.w3.org/1999/02/22-rdf-syntax-ns#"
   xmlns:svg="http://www.w3.org/2000/svg"
   xmlns="http://www.w3.org/2000/svg"
   xmlns:sodipodi="http://sodipodi.sourceforge.net/DTD/sodipodi-0.dtd"
   xmlns:inkscape="http://www.inkscape.org/namespaces/inkscape"
   version="1.1"
   id="Capa_1"
   x="0px"
   y="0px"
   width="512"
   height="512"
   viewBox="0 0 512.00001 512.00001"
   xml:space="preserve"
   inkscape:version="0.91 r13725"
   sodipodi:docname="new_user.svg"><metadata
     id="metadata44"><rdf:RDF><cc:Work
         rdf:about=""><dc:format>image/svg+xml</dc:format><dc:type
           rdf:resource="http://purl.org/dc/dcmitype/StillImage" /><dc:title></dc:title></cc:Work></rdf:RDF></metadata><defs
     id="defs42" /><sodipodi:namedview
     pagecolor="#ffffff"
     bordercolor="#666666"
     borderopacity="1"
     objecttolerance="1"
     gridtolerance="1"
     guidetolerance="1"
     inkscape:pageopacity="0"
     inkscape:pageshadow="2"
     inkscape:window-width="1600"
     inkscape:window-height="838"
     id="namedview40"
     showgrid="true"
     inkscape:zoom="1"
     inkscape:cx="215.13681"
     inkscape:cy="284.17541"
     inkscape:window-x="-8"
     inkscape:window-y="-8"
     inkscape:window-maximized="1"
     inkscape:current-layer="user_-_single_tick_done_valid"><inkscape:grid
       type="xygrid"
       id="grid3372" /></sodipodi:namedview><g
     id="g3"
     transform="matrix(0.78431469,0,0,0.78431493,-6.9446559e-5,4.9970026e-8)"><g
       id="user_-_single_tick_done_valid"
       transform="matrix(1.0000011,0,0,1.0000011,1.4846902,-7.1351856e-4)"><g
         id="g6"
         transform="translate(7.6499825,0)"><path
           d="m 590.01904,446.94402 c -7.915,-7.63 -19.452,2.88873 -27.367,10.51873 L 440.67105,576.64698 401.82907,537.15026 c -7.915,-7.63 -18.177,-16.23624 -26.092,-8.60624 -7.915,7.67 -1.54001,17.16325 6.37499,24.83425 l 40.44299,40.77074 c 0.897,1.551 3.26675,2.94263 4.61375,4.24763 4.161,3.998 7.7565,8.82111 13.1835,8.61711 5.427,0.204 9.81938,-4.77849 13.98038,-8.77649 1.347,-1.306 3.59637,-2.57825 4.45437,-4.08825 l 121.6705,-121.37449 c 7.914,-7.71 17.47649,-18.1595 9.56149,-25.8305 z m -443.82202,-91.84 c 31.497,24.928 85.35499,53.30653 127.49898,52.89535 46.20302,-0.45078 98.51198,-27.96735 130.00998,-52.89535 28.274,2.162 55.5492,30.53798 69.1362,52.89598 l 25.49997,0 C 485.32615,372.912 456.154,345.291 419.435,333.295 446.608,298.003 463.62139,253.368 463.62139,204 463.62139,91.311 378.595,0 273.698,0 168.8,0 83.730511,91.311 83.730511,204 c 0,49.368 16.973489,94.044 44.146489,129.295 -50.021,16.32 -86.333421,61.608 -86.333,115.505 l 6.37e-4,81.6 C 41.545166,598.005 98.215,652.799 168.147,652.799 l 189.924,0 0,-25.49996 -189.924,0 c -53.39705,0 -101.102394,-44.62493 -101.102394,-96.89904 l 0,-81.6 c 0,-42.88 35.699414,-90.35198 79.152414,-93.69598 z M 109.23048,204 C 109.32292,108.91062 184.87486,25.131557 273.696,25.499961 362.50821,25.868328 436.29138,107.11181 438.12142,204 439.87455,296.81608 365.64768,380.71237 273.696,382.49941 183.53216,384.25171 109.1398,297.27881 109.23048,204 Z"
           id="path8"
           inkscape:connector-curvature="0"
           sodipodi:nodetypes="ccccccccccccccsccccssscsssccssscsssss" /></g></g></g><g
     id="g10"
     transform="matrix(0.77180238,0,0,0.77180238,9.4802417,8.1671851)" /><g
     id="g12"
     transform="matrix(0.77180238,0,0,0.77180238,9.4802417,8.1671851)" /><g
     id="g14"
     transform="matrix(0.77180238,0,0,0.77180238,9.4802417,8.1671851)" /><g
     id="g16"
     transform="matrix(0.77180238,0,0,0.77180238,9.4802417,8.1671851)" /><g
     id="g18"
     transform="matrix(0.77180238,0,0,0.77180238,9.4802417,8.1671851)" /><g
     id="g20"
     transform="matrix(0.77180238,0,0,0.77180238,9.4802417,8.1671851)" /><g
     id="g22"
     transform="matrix(0.77180238,0,0,0.77180238,9.4802417,8.1671851)" /><g
     id="g24"
     transform="matrix(0.77180238,0,0,0.77180238,9.4802417,8.1671851)" /><g
     id="g26"
     transform="matrix(0.77180238,0,0,0.77180238,9.4802417,8.1671851)" /><g
     id="g28"
     transform="matrix(0.77180238,0,0,0.77180238,9.4802417,8.1671851)" /><g
     id="g30"
     transform="matrix(0.77180238,0,0,0.77180238,9.4802417,8.1671851)" /><g
     id="g32"
     transform="matrix(0.77180238,0,0,0.77180238,9.4802417,8.1671851)" /><g
     id="g34"
     transform="matrix(0.77180238,0,0,0.77180238,9.4802417,8.1671851)" /><g
     id="g36"
     transform="matrix(0.77180238,0,0,0.77180238,9.4802417,8.1671851)" /><g
     id="g38"
     transform="matrix(0.77180238,0,0,0.77180238,9.4802417,8.1671851)" /></svg>