<svg version="1.1" id="Layer_1" xmlns="http://www.w3.org/2000/svg" xmlns:xlink="http://www.w3.org/1999/xlink" x="0px" y="0px"
 width="512px" height="512px" viewBox="0 0 512 512" style="enable-background:new 0 0 512 512;" xml:space="preserve">
<g fill="#ffffff">
<path d="M436.688,227.648l-290.2-0.051l-12.164-41.877c-1.813-6.242-6.839-11.175-13.116-12.873l-42.57-11.513
c-1.604-0.432-3.253-0.652-4.902-0.652c-8.448,0-15.89,5.702-18.098,13.863c-1.308,4.835-0.653,9.894,1.842,14.237
c2.495,4.344,6.532,7.457,11.368,8.764l32.395,8.76l65.766,237.212c-9.368,4.622-15.441,14.2-15.441,24.861
c0,15.291,12.44,27.733,27.732,27.733c15.292,0,27.733-12.442,27.733-27.733c0-0.36-0.007-0.72-0.021-1.08h133.879
c-0.016,0.36-0.021,0.72-0.021,1.08c0,15.291,12.44,27.733,27.732,27.733s27.733-12.442,27.733-27.733
c0-14.054-10.687-25.837-24.36-27.52c-33.276-5.375-169.084-11.941-169.084-11.941l-4.461-17.455h169.449
c8.663,0,16.366-5.821,18.732-14.155l36.62-128.997h13.458c11.229,0,20.331-9.105,20.331-20.333
C457.02,236.75,447.917,227.648,436.688,227.648z M220.857,368.295h-31.764c-0.868-0.016-2.143,0.184-2.725-1.859
c-0.737-2.594-1.772-6.159-1.772-6.159l-24.893-87.693c-0.122-0.426-0.034-0.894,0.233-1.247c0.269-0.357,0.694-0.57,1.14-0.57
h38.604c0.672,0,1.245,0.459,1.391,1.117l21.055,94.278l0.076,0.29c0.04,0.13,0.06,0.27,0.06,0.416
C222.262,367.646,221.634,368.283,220.857,368.295z M301.917,272.505l-17.156,94.675c-0.146,0.656-0.719,1.115-1.392,1.115h-23.958
c-0.674,0-1.247-0.459-1.394-1.117l-17.155-94.675c-0.095-0.422,0.007-0.86,0.28-1.202c0.271-0.34,0.678-0.535,1.112-0.535h58.27
c0.436,0,0.84,0.195,1.114,0.537C301.91,271.643,302.011,272.081,301.917,272.505z M383.076,272.585l-26.876,94.671
c-0.173,0.611-0.738,1.039-1.372,1.039h-32.87c-0.436,0-0.841-0.195-1.113-0.533c-0.273-0.341-0.374-0.781-0.28-1.205
l21.142-94.674c0.144-0.647,0.73-1.117,1.394-1.117h38.603c0.444,0,0.87,0.213,1.137,0.568
C383.108,271.689,383.196,272.157,383.076,272.585z"/>
<path d="M269.034,201.74c3.932,6.797,14.072,6.78,17.989-0.012l49.67-74.677c1.997-3.468,1.81-7.883-0.481-11.159
c-2.173-3.107-5.54-4.42-9.223-4.416c-3.641,0.002-7.284,0.002-10.924,0.004l-17.239,0.013V36.727
c0-11.511-9.331-20.84-20.842-20.84s-20.842,9.329-20.842,20.84v74.791l-12.877,0.009l-16.022,0.013
c-7.839,0.002-12.917,8.777-8.983,15.587L269.034,201.74z"/>
</g>
</svg>
