<svg version="1.0" xmlns="http://www.w3.org/2000/svg"
 width="512.000000pt" height="602.000000pt" viewBox="0 0 512.000000 602.000000"
 preserveAspectRatio="xMidYMid meet">
<g transform="translate(0.000000,602.000000) scale(0.100000,-0.100000)"
fill="#3CB54A" stroke="none">
<path d="M2255 6008 c-31 -18 -41 -31 -68 -85 -71 -140 -158 -156 -287 -54
-100 79 -181 45 -206 -86 -7 -39 -21 -67 -45 -94 -51 -54 -109 -57 -209 -10
-73 35 -98 38 -140 16 -33 -17 -47 -54 -55 -143 -3 -35 -12 -77 -21 -93 -30
-60 -107 -83 -194 -59 -121 32 -181 3 -179 -87 4 -200 5 -190 -21 -218 -39
-42 -59 -49 -157 -50 -101 -2 -136 -16 -154 -63 -12 -29 1 -98 27 -150 18 -37
12 -113 -12 -145 -22 -30 -70 -56 -116 -62 -90 -12 -131 -33 -148 -74 -16 -40
-7 -73 38 -141 30 -46 36 -64 37 -110 0 -84 -18 -103 -160 -164 -73 -32 -96
-93 -57 -154 9 -15 36 -46 59 -69 61 -63 73 -137 32 -194 -11 -16 -48 -48 -81
-70 -41 -28 -65 -53 -75 -78 -14 -33 -14 -39 3 -71 11 -19 46 -53 79 -75 63
-43 90 -80 98 -131 6 -42 -12 -80 -68 -139 -26 -27 -51 -60 -56 -73 -26 -66 7
-119 92 -149 29 -10 70 -34 93 -54 39 -35 41 -39 41 -95 0 -52 -5 -66 -39
-117 -52 -77 -56 -125 -15 -166 16 -16 41 -32 56 -35 149 -28 166 -36 193 -86
23 -43 21 -88 -6 -169 -30 -90 -26 -121 20 -155 22 -17 42 -21 106 -21 43 0
81 -3 85 -6 6 -7 -50 -114 -265 -514 -18 -33 -53 -98 -78 -145 -24 -47 -78
-148 -120 -225 -85 -159 -126 -237 -202 -380 -29 -55 -56 -104 -60 -110 -29
-41 -38 -40 378 -40 342 0 398 -2 409 -15 6 -8 98 -145 204 -304 188 -285 191
-289 208 -268 9 13 74 118 145 235 70 117 168 277 217 357 49 80 98 161 109
180 11 19 30 52 42 72 13 20 69 113 126 207 56 93 109 175 118 182 8 6 34 12
57 13 59 0 110 -33 139 -92 38 -75 57 -99 88 -112 49 -20 84 -4 145 65 59 66
93 85 156 85 59 0 85 -15 158 -90 56 -59 72 -70 100 -70 47 0 86 32 116 95 45
97 119 141 187 112 35 -15 28 -4 463 -722 87 -143 188 -309 225 -370 38 -60
74 -122 81 -137 7 -16 17 -28 23 -28 6 0 24 21 41 48 57 91 347 527 360 542
12 13 69 15 409 15 l395 0 -61 115 c-33 63 -73 138 -88 165 -15 28 -49 91 -75
140 -112 212 -139 263 -165 310 -15 28 -49 91 -75 140 -66 125 -109 206 -204
382 -45 84 -80 157 -77 161 3 5 37 7 75 5 135 -8 186 53 141 169 -33 85 -36
130 -10 176 26 46 67 68 153 82 72 11 114 40 122 83 8 39 -4 73 -46 134 -39
57 -48 116 -24 166 13 28 32 44 78 67 33 16 65 30 71 30 7 0 26 13 44 29 25
24 32 38 32 68 0 42 -16 69 -67 118 -98 92 -87 190 31 268 120 80 122 148 7
227 -126 85 -138 167 -40 269 28 29 56 66 64 83 22 53 -5 103 -70 132 -103 46
-121 58 -142 89 -35 51 -30 101 16 178 49 82 55 102 41 143 -13 42 -41 61
-100 71 -113 18 -174 56 -185 118 -7 36 -4 54 26 153 20 63 20 73 8 100 -21
44 -61 59 -160 59 -96 0 -125 13 -160 68 -18 29 -19 43 -14 133 7 107 1 135
-34 153 -34 19 -67 19 -142 1 -139 -32 -204 16 -216 160 -6 82 -21 118 -53
135 -42 22 -67 19 -138 -15 -77 -36 -108 -43 -151 -30 -55 16 -86 59 -111 158
-12 48 -55 100 -85 103 -47 4 -66 -3 -112 -39 -62 -50 -86 -62 -128 -67 -68
-9 -116 27 -167 128 -22 45 -37 62 -65 73 -54 23 -86 10 -146 -58 -62 -71 -91
-88 -151 -88 -68 0 -95 15 -161 85 -64 69 -109 88 -150 63z m610 -531 c444
-74 826 -269 1134 -578 67 -68 135 -146 176 -203 11 -16 29 -40 41 -55 64 -82
185 -311 238 -451 86 -226 121 -431 121 -700 -1 -180 -8 -255 -40 -405 -8 -38
-17 -79 -19 -90 -5 -25 -66 -203 -94 -273 -27 -69 -107 -219 -166 -309 -290
-448 -769 -772 -1296 -877 -540 -107 -1105 9 -1552 319 -359 249 -638 622
-769 1030 -27 83 -67 242 -73 290 -18 138 -21 186 -21 325 0 213 8 281 56 475
140 576 544 1069 1084 1326 188 90 425 160 620 183 138 17 438 13 560 -7z"/>
<path d="M2508 5345 c-1 -1 -41 -5 -88 -8 -349 -23 -698 -156 -985 -375 -112
-85 -281 -251 -338 -332 -9 -14 -37 -53 -62 -87 -25 -35 -45 -65 -45 -67 0 -3
-13 -25 -30 -49 -16 -25 -30 -48 -30 -51 0 -3 -17 -41 -38 -84 -65 -131 -128
-320 -147 -442 -3 -19 -12 -72 -19 -117 -24 -151 -10 -467 28 -628 58 -243
142 -437 271 -629 69 -103 77 -113 150 -195 157 -175 351 -323 562 -430 78
-38 280 -116 324 -125 13 -2 51 -11 84 -19 164 -41 524 -56 685 -28 93 16 110
19 135 24 553 125 1010 487 1260 997 65 133 134 346 155 480 6 41 14 86 17
100 3 14 6 102 7 195 3 190 -11 317 -55 489 -127 504 -490 949 -966 1185 -90
45 -248 107 -290 115 -10 2 -43 11 -73 20 -30 8 -71 18 -90 21 -19 3 -60 10
-90 16 -30 5 -111 12 -180 15 -69 3 -130 7 -137 9 -6 2 -13 2 -15 0z m1420
-1387 c7 -7 12 -21 12 -32 0 -11 -120 -213 -267 -448 -276 -441 -289 -458
-332 -431 -9 6 -17 20 -19 32 -2 14 82 158 259 439 144 229 269 425 277 435
17 20 53 22 70 5z m-2542 -6 c31 -21 34 -54 34 -439 0 -350 -2 -391 -18 -422
-19 -40 -51 -52 -99 -39 -55 14 -58 26 -63 339 l-5 287 -65 -39 c-36 -22 -78
-43 -95 -48 -41 -11 -84 6 -96 37 -19 48 -4 68 81 112 91 48 153 99 205 170
33 44 41 50 73 50 21 0 42 -4 48 -8z m739 -16 c63 -30 107 -76 140 -147 38
-84 48 -156 43 -324 -4 -125 -9 -160 -28 -209 -29 -75 -95 -147 -161 -175 -57
-25 -157 -30 -216 -11 -79 26 -152 99 -186 187 -25 63 -40 215 -32 318 13 169
39 246 107 314 50 51 104 69 203 70 64 1 90 -4 130 -23z m740 0 c63 -30 107
-76 140 -147 38 -84 48 -156 43 -324 -4 -125 -9 -160 -28 -209 -29 -75 -95
-147 -161 -175 -57 -25 -157 -30 -216 -11 -79 26 -152 99 -186 187 -25 63 -40
215 -32 318 13 169 39 246 107 314 50 51 104 69 203 70 64 1 90 -4 130 -23z
m552 7 c19 -9 47 -34 61 -56 22 -34 27 -53 30 -132 5 -104 -6 -149 -46 -197
-33 -40 -78 -58 -142 -58 -61 0 -106 18 -141 56 -37 41 -52 96 -51 187 1 95
28 160 81 194 43 29 154 32 208 6z m606 -427 c41 -16 81 -64 97 -112 8 -22 11
-73 8 -129 -3 -79 -8 -98 -30 -132 -34 -51 -82 -74 -158 -74 -107 -1 -168 49
-190 157 -13 64 -5 152 20 210 16 37 53 73 90 87 29 11 131 7 163 -7z"/>
<path d="M1937 3819 c-47 -27 -77 -147 -77 -309 0 -220 42 -320 135 -320 82 0
119 57 136 207 11 100 7 216 -13 313 -15 76 -59 120 -119 120 -24 0 -52 -5
-62 -11z"/>
<path d="M2677 3819 c-47 -27 -77 -147 -77 -309 0 -220 42 -320 135 -320 82 0
119 57 136 207 11 100 7 216 -13 313 -15 76 -59 120 -119 120 -24 0 -52 -5
-62 -11z"/>
<path d="M3283 3862 c-21 -13 -33 -62 -33 -132 0 -104 18 -140 71 -140 50 0
64 31 64 140 0 82 -3 101 -19 119 -19 21 -60 27 -83 13z"/>
<path d="M3904 3432 c-24 -15 -34 -54 -34 -126 0 -110 17 -146 71 -146 50 0
64 31 64 140 0 82 -3 101 -19 119 -19 21 -61 28 -82 13z"/>
</g>
</svg>
